<svg xmlns="http://www.w3.org/2000/svg" xmlns:xlink="http://www.w3.org/1999/xlink" width="1400" zoomAndPan="magnify" viewBox="0 0 1050 374.999991" height="500" preserveAspectRatio="xMidYMid meet" version="1.0"><defs><g/><clipPath id="d65af51019"><path d="M 910 6 L 1017 6 L 1017 152 L 910 152 Z M 910 6 " clip-rule="nonzero"/></clipPath><clipPath id="db772840d2"><path d="M 922.683594 -19.632812 L 1075.734375 23.445312 L 1028.390625 191.660156 L 875.335938 148.582031 Z M 922.683594 -19.632812 " clip-rule="nonzero"/></clipPath><clipPath id="611d68ac6e"><path d="M 922.683594 -19.632812 L 1075.734375 23.445312 L 1028.390625 191.660156 L 875.335938 148.582031 Z M 922.683594 -19.632812 " clip-rule="nonzero"/></clipPath><clipPath id="16ff56bb97"><path d="M 922.683594 -19.632812 L 1075.734375 23.445312 L 1028.390625 191.660156 L 875.335938 148.582031 Z M 922.683594 -19.632812 " clip-rule="nonzero"/></clipPath><clipPath id="5d133d2d55"><path d="M 941 98 L 1050 98 L 1050 168 L 941 168 Z M 941 98 " clip-rule="nonzero"/></clipPath><clipPath id="fb557c8511"><path d="M 922.683594 -19.632812 L 1075.734375 23.445312 L 1028.390625 191.660156 L 875.335938 148.582031 Z M 922.683594 -19.632812 " clip-rule="nonzero"/></clipPath><clipPath id="8c705ade09"><path d="M 922.683594 -19.632812 L 1075.734375 23.445312 L 1028.390625 191.660156 L 875.335938 148.582031 Z M 922.683594 -19.632812 " clip-rule="nonzero"/></clipPath><clipPath id="0e722860f4"><path d="M 922.683594 -19.632812 L 1075.734375 23.445312 L 1028.390625 191.660156 L 875.335938 148.582031 Z M 922.683594 -19.632812 " clip-rule="nonzero"/></clipPath></defs><g clip-path="url(#d65af51019)"><g clip-path="url(#db772840d2)"><g clip-path="url(#611d68ac6e)"><g clip-path="url(#16ff56bb97)"><path fill="#80cc28" d="M 977.5 69.511719 C 967.246094 82.511719 960.066406 94.53125 955.0625 105.25 C 963.632812 98.5 975.429688 95.03125 990.222656 94.925781 C 995.664062 94.886719 1001.636719 95.300781 1007.984375 96.152344 C 1009.851562 96.402344 1011.703125 96.632812 1013.527344 96.847656 C 1015.632812 88.949219 1016.644531 79.507812 1016.214844 68.097656 C 1014.945312 34.492188 1015.421875 6.46875 1015.421875 6.46875 C 1015.421875 6.46875 992.253906 22.445312 962.253906 37.648438 C 914.625 61.785156 889.929688 96.800781 933.433594 151.761719 C 928.628906 113.863281 977.5 69.511719 977.5 69.511719 " fill-opacity="1" fill-rule="nonzero"/></g></g></g></g><g clip-path="url(#5d133d2d55)"><g clip-path="url(#fb557c8511)"><g clip-path="url(#8c705ade09)"><g clip-path="url(#0e722860f4)"><path fill="#40b93c" d="M 1007.535156 99.484375 C 968.058594 94.179688 938.078125 105.261719 941.582031 157.433594 C 954.648438 132.109375 1003.433594 125.511719 1003.433594 125.511719 C 966.78125 136.863281 952.367188 154.933594 947.714844 162.539062 C 971.589844 162.152344 1000.679688 183.855469 1027.824219 141.011719 C 1041.253906 119.820312 1053.390625 102.796875 1053.390625 102.796875 C 1053.390625 102.796875 1032.398438 102.824219 1007.535156 99.484375 " fill-opacity="1" fill-rule="nonzero"/></g></g></g></g><g fill="#ffffff" fill-opacity="1"><g transform="translate(13.327837, 322.461044)"><g><path d="M 118.703125 -162.40625 C 120.171875 -165.101562 122.367188 -166.914062 125.296875 -167.84375 C 128.234375 -168.769531 131.894531 -169.234375 136.28125 -169.234375 C 140.675781 -169.234375 144.222656 -168.847656 146.921875 -168.078125 C 149.617188 -167.304688 151.617188 -166.378906 152.921875 -165.296875 C 154.234375 -164.222656 155.203125 -162.601562 155.828125 -160.4375 C 156.742188 -157.976562 157.203125 -154.050781 157.203125 -148.65625 L 157.203125 -20.34375 C 157.203125 -16.644531 157.085938 -13.945312 156.859375 -12.25 C 156.628906 -10.550781 155.898438 -8.546875 154.671875 -6.234375 C 152.503906 -2.078125 146.488281 0 136.625 0 C 130.613281 0 126.453125 -0.460938 124.140625 -1.390625 C 121.835938 -2.316406 119.914062 -3.78125 118.375 -5.78125 C 83.6875 -52.019531 60.875 -82.226562 49.9375 -96.40625 L 49.9375 -20.34375 C 49.9375 -16.644531 49.820312 -13.945312 49.59375 -12.25 C 49.363281 -10.550781 48.628906 -8.546875 47.390625 -6.234375 C 45.234375 -2.078125 39.222656 0 29.359375 0 C 19.804688 0 13.953125 -2.078125 11.796875 -6.234375 C 10.554688 -8.546875 9.820312 -10.628906 9.59375 -12.484375 C 9.363281 -14.335938 9.25 -17.035156 9.25 -20.578125 L 9.25 -149.578125 C 9.25 -155.429688 9.976562 -159.707031 11.4375 -162.40625 C 12.90625 -165.101562 15.101562 -166.914062 18.03125 -167.84375 C 20.957031 -168.769531 24.734375 -169.234375 29.359375 -169.234375 C 33.984375 -169.234375 37.644531 -168.804688 40.34375 -167.953125 C 43.039062 -167.109375 44.925781 -166.144531 46 -165.0625 C 46.625 -164.601562 48.398438 -162.601562 51.328125 -159.0625 C 83.847656 -114.820312 105.578125 -85.613281 116.515625 -71.4375 L 116.515625 -149.578125 C 116.515625 -155.429688 117.242188 -159.707031 118.703125 -162.40625 Z M 118.703125 -162.40625 "/></g></g></g><g fill="#ffffff" fill-opacity="1"><g transform="translate(170.760926, 322.461044)"><g><path d="M 107.046875 -157.4375 L 169.453125 -28.4375 C 172.078125 -23.195312 173.390625 -19.265625 173.390625 -16.640625 C 173.390625 -11.097656 168.921875 -6.09375 159.984375 -1.625 C 154.742188 1 150.617188 2.3125 147.609375 2.3125 C 144.609375 2.3125 142.144531 1.617188 140.21875 0.234375 C 138.289062 -1.148438 136.898438 -2.613281 136.046875 -4.15625 C 135.203125 -5.695312 134.007812 -8.007812 132.46875 -11.09375 L 120.453125 -36.0625 L 56.40625 -36.0625 L 44.390625 -11.09375 C 42.847656 -8.007812 41.648438 -5.773438 40.796875 -4.390625 C 39.953125 -3.003906 38.566406 -1.578125 36.640625 -0.109375 C 34.710938 1.347656 32.242188 2.078125 29.234375 2.078125 C 26.234375 2.078125 22.113281 0.769531 16.875 -1.84375 C 7.9375 -6.164062 3.46875 -11.097656 3.46875 -16.640625 C 3.46875 -19.265625 4.773438 -23.195312 7.390625 -28.4375 L 69.8125 -157.671875 C 71.507812 -161.210938 74.09375 -164.0625 77.5625 -166.21875 C 81.03125 -168.375 84.691406 -169.453125 88.546875 -169.453125 C 96.867188 -169.453125 103.035156 -165.445312 107.046875 -157.4375 Z M 88.3125 -101.953125 L 73.0625 -70.28125 L 103.796875 -70.28125 Z M 88.3125 -101.953125 "/></g></g></g><g fill="#ffffff" fill-opacity="1"><g transform="translate(338.597055, 322.461044)"><g><path d="M 20.34375 -169.6875 L 148.890625 -169.6875 C 153.816406 -169.6875 157.4375 -169.109375 159.75 -167.953125 C 162.0625 -166.796875 163.601562 -164.984375 164.375 -162.515625 C 165.144531 -160.054688 165.53125 -156.820312 165.53125 -152.8125 C 165.53125 -148.800781 165.144531 -145.601562 164.375 -143.21875 C 163.601562 -140.832031 162.289062 -139.175781 160.4375 -138.25 C 157.664062 -136.863281 153.738281 -136.171875 148.65625 -136.171875 L 104.5 -136.171875 L 104.5 -19.875 C 104.5 -16.332031 104.378906 -13.710938 104.140625 -12.015625 C 103.910156 -10.328125 103.21875 -8.363281 102.0625 -6.125 C 100.90625 -3.894531 98.863281 -2.316406 95.9375 -1.390625 C 93.007812 -0.460938 89.15625 0 84.375 0 C 79.601562 0 75.789062 -0.460938 72.9375 -1.390625 C 70.082031 -2.316406 68.078125 -3.894531 66.921875 -6.125 C 65.765625 -8.363281 65.070312 -10.367188 64.84375 -12.140625 C 64.613281 -13.910156 64.5 -16.566406 64.5 -20.109375 L 64.5 -136.171875 L 20.109375 -136.171875 C 15.179688 -136.171875 11.5625 -136.75 9.25 -137.90625 C 6.9375 -139.0625 5.394531 -140.867188 4.625 -143.328125 C 3.851562 -145.796875 3.46875 -149.035156 3.46875 -153.046875 C 3.46875 -157.054688 3.851562 -160.253906 4.625 -162.640625 C 5.394531 -165.023438 6.703125 -166.679688 8.546875 -167.609375 C 11.328125 -168.992188 15.257812 -169.6875 20.34375 -169.6875 Z M 20.34375 -169.6875 "/></g></g></g><g fill="#ffffff" fill-opacity="1"><g transform="translate(498.573087, 322.461044)"><g><path d="M 119.984375 -163.21875 C 121.523438 -165.6875 123.757812 -167.378906 126.6875 -168.296875 C 129.613281 -169.222656 133.273438 -169.6875 137.671875 -169.6875 C 142.066406 -169.6875 145.570312 -169.300781 148.1875 -168.53125 C 150.8125 -167.757812 152.816406 -166.832031 154.203125 -165.75 C 155.585938 -164.675781 156.585938 -163.0625 157.203125 -160.90625 C 158.128906 -158.28125 158.59375 -154.273438 158.59375 -148.890625 L 158.59375 -79.0625 C 158.59375 -58.71875 152.273438 -40.222656 139.640625 -23.578125 C 133.472656 -15.722656 125.535156 -9.363281 115.828125 -4.5 C 106.117188 0.351562 95.367188 2.78125 83.578125 2.78125 C 71.785156 2.78125 61.070312 0.316406 51.4375 -4.609375 C 41.800781 -9.546875 33.976562 -16.023438 27.96875 -24.046875 C 15.488281 -40.378906 9.25 -58.875 9.25 -79.53125 L 9.25 -149.109375 C 9.25 -152.816406 9.363281 -155.554688 9.59375 -157.328125 C 9.820312 -159.097656 10.550781 -161.140625 11.78125 -163.453125 C 13.019531 -165.765625 15.101562 -167.378906 18.03125 -168.296875 C 20.957031 -169.222656 24.882812 -169.6875 29.8125 -169.6875 C 34.75 -169.6875 38.679688 -169.222656 41.609375 -168.296875 C 44.535156 -167.378906 46.539062 -165.765625 47.625 -163.453125 C 49.476562 -159.898438 50.40625 -155.046875 50.40625 -148.890625 L 50.40625 -79.53125 C 50.40625 -70.125 52.710938 -61.179688 57.328125 -52.703125 C 59.640625 -48.390625 63.109375 -44.921875 67.734375 -42.296875 C 72.359375 -39.679688 77.832031 -38.375 84.15625 -38.375 C 95.40625 -38.375 103.800781 -42.535156 109.34375 -50.859375 C 114.894531 -59.179688 117.671875 -68.816406 117.671875 -79.765625 L 117.671875 -150.5 C 117.671875 -156.507812 118.441406 -160.75 119.984375 -163.21875 Z M 119.984375 -163.21875 "/></g></g></g><g fill="#ffffff" fill-opacity="1"><g transform="translate(657.393264, 322.461044)"><g><path d="M 138.9375 -28.671875 C 141.25 -23.117188 142.40625 -19.109375 142.40625 -16.640625 C 142.40625 -10.785156 137.628906 -5.851562 128.078125 -1.84375 C 123.148438 0.3125 119.179688 1.390625 116.171875 1.390625 C 113.160156 1.390625 110.691406 0.660156 108.765625 -0.796875 C 106.847656 -2.265625 105.425781 -3.769531 104.5 -5.3125 C 102.957031 -8.238281 96.945312 -22.1875 86.46875 -47.15625 L 79.296875 -46.703125 L 50.171875 -46.703125 L 50.171875 -20.578125 C 50.171875 -17.035156 50.050781 -14.375 49.8125 -12.59375 C 49.582031 -10.820312 48.851562 -8.78125 47.625 -6.46875 C 45.46875 -2.3125 39.457031 -0.234375 29.59375 -0.234375 C 18.800781 -0.234375 12.484375 -3.082031 10.640625 -8.78125 C 9.710938 -11.40625 9.25 -15.414062 9.25 -20.8125 L 9.25 -149.109375 C 9.25 -152.660156 9.363281 -155.320312 9.59375 -157.09375 C 9.820312 -158.863281 10.554688 -160.90625 11.796875 -163.21875 C 13.953125 -167.375 19.960938 -169.453125 29.828125 -169.453125 L 79.765625 -169.453125 C 93.328125 -169.453125 106.503906 -164.523438 119.296875 -154.671875 C 125.460938 -149.890625 130.546875 -143.410156 134.546875 -135.234375 C 138.554688 -127.066406 140.5625 -117.976562 140.5625 -107.96875 C 140.5625 -90.550781 134.78125 -76.21875 123.21875 -64.96875 C 126.613281 -56.789062 131.851562 -44.691406 138.9375 -28.671875 Z M 50.171875 -87.625 L 79.765625 -87.625 C 84.234375 -87.625 88.703125 -89.316406 93.171875 -92.703125 C 97.640625 -96.097656 99.875 -101.1875 99.875 -107.96875 C 99.875 -114.75 97.640625 -119.875 93.171875 -123.34375 C 88.703125 -126.8125 84.078125 -128.546875 79.296875 -128.546875 L 50.171875 -128.546875 Z M 50.171875 -87.625 "/></g></g></g><g fill="#ffffff" fill-opacity="1"><g transform="translate(794.251365, 322.461044)"><g><path d="M 50.171875 -40.921875 L 121.375 -40.921875 C 124.914062 -40.921875 127.570312 -40.804688 129.34375 -40.578125 C 131.125 -40.347656 133.164062 -39.613281 135.46875 -38.375 C 139.632812 -36.21875 141.71875 -30.207031 141.71875 -20.34375 C 141.71875 -9.550781 138.863281 -3.234375 133.15625 -1.390625 C 130.539062 -0.460938 126.535156 0 121.140625 0 L 29.59375 0 C 18.800781 0 12.484375 -2.925781 10.640625 -8.78125 C 9.710938 -11.25 9.25 -15.179688 9.25 -20.578125 L 9.25 -149.109375 C 9.25 -156.972656 10.710938 -162.328125 13.640625 -165.171875 C 16.566406 -168.023438 22.113281 -169.453125 30.28125 -169.453125 L 121.375 -169.453125 C 124.914062 -169.453125 127.570312 -169.335938 129.34375 -169.109375 C 131.125 -168.878906 133.164062 -168.148438 135.46875 -166.921875 C 139.632812 -164.765625 141.71875 -158.753906 141.71875 -148.890625 C 141.71875 -138.097656 138.863281 -131.773438 133.15625 -129.921875 C 130.539062 -129.003906 126.535156 -128.546875 121.140625 -128.546875 L 50.171875 -128.546875 L 50.171875 -105.1875 L 95.9375 -105.1875 C 99.488281 -105.1875 102.148438 -105.070312 103.921875 -104.84375 C 105.691406 -104.613281 107.734375 -103.878906 110.046875 -102.640625 C 114.203125 -100.484375 116.28125 -94.472656 116.28125 -84.609375 C 116.28125 -73.828125 113.351562 -67.507812 107.5 -65.65625 C 104.882812 -64.726562 100.878906 -64.265625 95.484375 -64.265625 L 50.171875 -64.265625 Z M 50.171875 -40.921875 "/></g></g></g></svg>