<svg xmlns="http://www.w3.org/2000/svg" xmlns:xlink="http://www.w3.org/1999/xlink" width="850" zoomAndPan="magnify" viewBox="0 0 637.5 299.999988" height="400" preserveAspectRatio="xMidYMid meet" version="1.0"><defs><g/></defs><g fill="#2a78ab" fill-opacity="1"><g transform="translate(0.0115, 231.317048)"><g><path d="M 15.953125 -175.75 L 87.5 -175.75 C 106.945312 -175.75 123.691406 -172.257812 137.734375 -165.28125 C 151.773438 -158.300781 162.535156 -148.203125 170.015625 -134.984375 C 177.492188 -121.773438 181.234375 -106.113281 181.234375 -88 C 181.234375 -69.71875 177.535156 -53.96875 170.140625 -40.75 C 162.742188 -27.539062 152.023438 -17.445312 137.984375 -10.46875 C 123.941406 -3.488281 107.113281 0 87.5 0 L 15.953125 0 Z M 84.265625 -36.890625 C 101.546875 -36.890625 114.425781 -41.128906 122.90625 -49.609375 C 131.382812 -58.085938 135.625 -70.882812 135.625 -88 C 135.625 -105.113281 131.382812 -117.867188 122.90625 -126.265625 C 114.425781 -134.660156 101.546875 -138.859375 84.265625 -138.859375 L 61.828125 -138.859375 L 61.828125 -36.890625 Z M 84.265625 -36.890625 "/></g></g></g><g fill="#ffffff" fill-opacity="1"><g transform="translate(192.705967, 231.317048)"><g><path d="M 69.0625 -125.640625 C 88.332031 -125.640625 102.578125 -121.191406 111.796875 -112.296875 C 121.023438 -103.410156 125.640625 -89.578125 125.640625 -70.796875 L 125.640625 0 L 84.015625 0 L 84.015625 -17.203125 C 81.679688 -11.222656 77.769531 -6.523438 72.28125 -3.109375 C 66.800781 0.296875 60.242188 2 52.609375 2 C 44.128906 2 36.476562 0.296875 29.65625 -3.109375 C 22.84375 -6.523438 17.484375 -11.265625 13.578125 -17.328125 C 9.679688 -23.390625 7.734375 -30.242188 7.734375 -37.890625 C 7.734375 -46.703125 10.015625 -53.722656 14.578125 -58.953125 C 19.148438 -64.191406 26.421875 -67.972656 36.390625 -70.296875 C 46.367188 -72.628906 59.832031 -73.796875 76.78125 -73.796875 L 83.515625 -73.796875 L 83.515625 -76.78125 C 83.515625 -82.925781 82.097656 -87.203125 79.265625 -89.609375 C 76.441406 -92.023438 71.457031 -93.234375 64.3125 -93.234375 C 58.664062 -93.234375 52.144531 -92.109375 44.75 -89.859375 C 37.351562 -87.617188 30.414062 -84.753906 23.9375 -81.265625 L 12.71875 -110.4375 C 19.863281 -114.757812 28.796875 -118.375 39.515625 -121.28125 C 50.234375 -124.1875 60.082031 -125.640625 69.0625 -125.640625 Z M 63.078125 -27.671875 C 69.054688 -27.671875 73.957031 -29.789062 77.78125 -34.03125 C 81.601562 -38.269531 83.515625 -43.710938 83.515625 -50.359375 L 83.515625 -53.34375 L 79.53125 -53.34375 C 68.894531 -53.34375 61.332031 -52.382812 56.84375 -50.46875 C 52.351562 -48.5625 50.109375 -45.367188 50.109375 -40.890625 C 50.109375 -37.066406 51.3125 -33.90625 53.71875 -31.40625 C 56.132812 -28.914062 59.253906 -27.671875 63.078125 -27.671875 Z M 63.078125 -27.671875 "/></g></g></g><g fill="#ffffff" fill-opacity="1"><g transform="translate(330.314459, 231.317048)"><g><path d="M 95.484375 -125.640625 C 110.109375 -125.640625 120.992188 -121.273438 128.140625 -112.546875 C 135.285156 -103.828125 138.859375 -90.578125 138.859375 -72.796875 L 138.859375 0 L 94.484375 0 L 94.484375 -70.796875 C 94.484375 -78.109375 93.191406 -83.425781 90.609375 -86.75 C 88.035156 -90.070312 84.175781 -91.734375 79.03125 -91.734375 C 72.382812 -91.734375 67.109375 -89.613281 63.203125 -85.375 C 59.296875 -81.144531 57.34375 -75.457031 57.34375 -68.3125 L 57.34375 0 L 12.96875 0 L 12.96875 -122.65625 L 56.09375 -122.65625 L 56.09375 -106.203125 C 60.414062 -112.515625 65.984375 -117.332031 72.796875 -120.65625 C 79.609375 -123.976562 87.171875 -125.640625 95.484375 -125.640625 Z M 95.484375 -125.640625 "/></g></g></g><g fill="#ffffff" fill-opacity="1"><g transform="translate(481.135382, 231.317048)"><g><path d="M 12.96875 0 L 12.96875 -122.65625 L 57.34375 -122.65625 L 57.34375 0 Z M 11.96875 -183.984375 L 58.34375 -183.984375 L 58.34375 -143.84375 L 11.96875 -143.84375 Z M 11.96875 -183.984375 "/></g></g></g><g fill="#ffffff" fill-opacity="1"><g transform="translate(551.186048, 231.317048)"><g><path d="M 10.71875 -45.375 L 56.84375 -45.375 L 56.84375 0 L 10.71875 0 Z M 10.71875 -45.375 "/></g></g></g></svg>